<svg height="512" viewBox="0 0 128 128" width="512" xmlns="http://www.w3.org/2000/svg"><g id="Layer_2" fill="rgb(0,0,0)" data-name="Layer 2"><path d="m108.686 18.244-.006-.008-.011-.009a63.942 63.942 0 0 0 -108.507 41.455v.026c-.097 1.42-.162 2.848-.162 4.292a64 64 0 1 0 108.686-45.756zm-44.686-14.744a60.263 60.263 0 0 1 40.948 16.013l-9.288 9.36h-6a1.749 1.749 0 0 0 -1.242.518l-3.153 3.179h-4.365a1.75 1.75 0 0 0 -1.242.518l-5.35 5.391a1.75 1.75 0 0 0 0 2.465l8.872 8.942.551 7.135-4.944 4.984-5.945-1.994-3.087-5.848a1.75 1.75 0 0 0 -1.548-.934h-2.551a1.75 1.75 0 0 0 -1.75 1.75v10.153a1.75 1.75 0 0 0 .425 1.143l4.076 4.725a1.752 1.752 0 0 0 .33.3l4.469 3.09 1.07 5.327h-1.212l-12.635-12.738v-8.523a1.771 1.771 0 0 0 -.069-.485l-1.621-5.617v-5.136a1.748 1.748 0 0 0 -.508-1.233l-2.9-2.927a1.748 1.748 0 0 0 -2.484 0l-3.25 3.275h-1.755v-7.854a1.75 1.75 0 0 0 -.508-1.232l-3.212-3.237v-3.651a1.75 1.75 0 0 0 -1.75-1.75h-2.3a1.749 1.749 0 0 0 -1.242.518l-.855.862h-4.275a1.749 1.749 0 0 0 -1.242.518l-11.606 11.693h-3.782a1.75 1.75 0 0 0 -1.242.518l-3.49 3.517a1.752 1.752 0 0 0 -.508 1.233v7.032l-1.684 1.7a1.751 1.751 0 0 0 -.507 1.233v3.114l-2.9 3.865h-.239l-2.81-4.975a60.568 60.568 0 0 1 60.31-55.937zm0 121a60.564 60.564 0 0 1 -60.441-58.18l.4.7a1.752 1.752 0 0 0 1.524.889h2.134a1.754 1.754 0 0 0 1.4-.7l3.771-5.032a1.751 1.751 0 0 0 .35-1.05v-2.977l1.683-1.7a1.75 1.75 0 0 0 .508-1.232v-7.03l2.471-2.488h3.78a1.748 1.748 0 0 0 1.242-.517l11.6-11.693h4.278a1.748 1.748 0 0 0 1.242-.517l.677-.682v2.44a1.752 1.752 0 0 0 .508 1.233l3.215 3.236v8.883a1.749 1.749 0 0 0 1.75 1.75h4.229a1.749 1.749 0 0 0 1.242-.518l2.522-2.541 1.154 1.164v4.662a1.771 1.771 0 0 0 .069.485l1.621 5.615v9a1.748 1.748 0 0 0 .508 1.233l13.657 13.767a1.749 1.749 0 0 0 1.242.518h4.077a1.751 1.751 0 0 0 1.716-2.095l-1.629-8.123a1.755 1.755 0 0 0 -.721-1.095l-4.866-3.365-3.5-4.063v-7.26l2.661 5.042a1.753 1.753 0 0 0 .982.84l4.21 1.438 3.466 1.13a1.751 1.751 0 0 0 1.784-.432l6.267-6.317a1.748 1.748 0 0 0 .5-1.367l-.662-8.576a1.749 1.749 0 0 0 -.5-1.1l-8.1-8.165 3.613-3.642h4.367a1.748 1.748 0 0 0 1.242-.517l3.156-3.18h6a1.746 1.746 0 0 0 1.242-.518l9.817-9.893a60.455 60.455 0 0 1 -43.458 102.54z"/><path d="m73.2 93.5-6.6-8.2a1.75 1.75 0 0 0 -.566-.46l-4-2.049-3.87-2.985-1.246-2.806a1.749 1.749 0 0 0 -1.042-.95l-5.5-1.849a1.763 1.763 0 0 0 -.558-.091h-2.653a1.751 1.751 0 0 0 -1.745 1.875l.474 6.631a1.744 1.744 0 0 0 .611 1.208l6.968 5.925 4.05 8.708a1.757 1.757 0 0 0 .841.845l12.175 5.735a1.733 1.733 0 0 0 .746.167h2.715a1.749 1.749 0 0 0 1.738-1.551l.747-6.5a1.748 1.748 0 0 0 -.656-1.576zm-.76 8.2h-.766l-11.244-5.3-3.946-8.48a1.728 1.728 0 0 0 -.453-.595l-6.7-5.7-.287-4.024h.483l4.5 1.513 1.115 2.513a1.747 1.747 0 0 0 .53.677l4.348 3.355a1.783 1.783 0 0 0 .272.172l3.813 1.952 6.495 8.07a1.8 1.8 0 0 0 .281.278l2.019 1.586z"/><path d="m98.921 102.23a1.753 1.753 0 0 0 -1.263-.538h-14.726a1.754 1.754 0 0 0 -1.139.421l-3.177 2.722a1.75 1.75 0 0 0 .153 2.774l3.794 2.589 1.812 1.405a1.749 1.749 0 0 0 1.072.367h14.217a1.751 1.751 0 0 0 1.688-1.286l1-3.645a1.754 1.754 0 0 0 -.425-1.676zm-.591 6.24h-12.284l-1.38-1.071c-.028-.021-.057-.043-.086-.062l-1.951-1.331.95-.814h13.333l1.8 1.878z"/><path d="m110.882 66.112-5.3-2.053a1.753 1.753 0 0 0 -2.019.562l-4.229 5.479h-2.027a1.754 1.754 0 0 0 -1.243.517l-2.764 2.789h-2.007a1.749 1.749 0 0 0 -1.692 1.3l-1.114 4.22-2.519-.259a1.745 1.745 0 0 0 -1.8 1.079l-1.427 3.492a1.751 1.751 0 0 0 -.13.662v2.4a1.748 1.748 0 0 0 .508 1.232l1.939 1.953v2.84a1.749 1.749 0 0 0 1.75 1.75h8.444l2 2.016a1.748 1.748 0 0 0 1.242.517h3.466a1.749 1.749 0 0 0 1.75-1.75v-3.866l3.331-3.356a1.75 1.75 0 0 0 .508-1.233v-3.351h1.273a1.749 1.749 0 0 0 1.75-1.75v-2.841a1.744 1.744 0 0 0 -.508-1.232l-1.816-1.829 3.244-3.269a1.75 1.75 0 0 0 .508-1.231v-3.156a1.75 1.75 0 0 0 -1.118-1.632zm-2.382 4.062-3.96 3.99a1.75 1.75 0 0 0 0 2.465l2.533 2.553v.37h-1.273a1.749 1.749 0 0 0 -1.75 1.75v4.381l-3.331 3.356a1.75 1.75 0 0 0 -.508 1.232v2.838h-.987l-2-2.015a1.751 1.751 0 0 0 -1.243-.518h-7.422v-1.81a1.75 1.75 0 0 0 -.508-1.233l-1.939-1.953v-1.332l.8-1.961 2.7.277a1.753 1.753 0 0 0 1.878-1.294l1.152-4.364h1.385a1.754 1.754 0 0 0 1.243-.517l2.765-2.789h2.159a1.751 1.751 0 0 0 1.386-.681l3.957-5.127 2.963 1.147z"/><path d="m58.82 34.6a38.945 38.945 0 0 0 3.7 7.928 1.749 1.749 0 0 0 2.968 0 38.945 38.945 0 0 0 3.7-7.928 9.375 9.375 0 1 0 -10.36 0zm5.18-13.681a5.874 5.874 0 0 1 2.841 11.016 1.749 1.749 0 0 0 -.841 1.065 28.079 28.079 0 0 1 -2 4.985 28.079 28.079 0 0 1 -2-4.985 1.749 1.749 0 0 0 -.84-1.069 5.874 5.874 0 0 1 2.84-11.012z"/><path d="m63.031 28.544h1.938a1.75 1.75 0 0 0 0-3.5h-1.938a1.75 1.75 0 0 0 0 3.5z"/></g></svg>