<?xml version="1.0"?>
<svg xmlns="http://www.w3.org/2000/svg" viewBox="0 0 128 128" width="512" height="512"><g id="Layer_2" data-name="Layer 2"><path d="M124.614,43.5A55.329,55.329,0,0,0,117.965,29.6,64.011,64.011,0,0,0,82.481,2.731,64.04,64.04,0,0,0,3.462,84.83,64,64,0,0,0,124.614,43.5ZM90.921,39.638l12.409,8.023,1.813,10.219-8.912,8.912a1.753,1.753,0,0,0-.512,1.238V79.346L90.19,84.874a1.747,1.747,0,0,0-.512,1.237v6.905L78.314,104.38l-8.5-8.5V78.958a1.75,1.75,0,0,0-.513-1.237L55.47,63.892a1.748,1.748,0,0,0-1.238-.513H43.194L35,55.184V38.6L47.9,25.7l9.085-3.579,5.547,5.547a1.75,1.75,0,0,0,1.046.5l20.8,2.293a1.765,1.765,0,0,0,.92-.149l12.33-5.648a1.75,1.75,0,0,0,.221-3.061L79.252,9.594a1.747,1.747,0,0,0-.724-.265L49.978,5.621l-.1-.44a60.5,60.5,0,0,1,69.3,34.05l-3.788-2.639c-.057-.039-.116-.075-.176-.108l-10.022-5.351a1.749,1.749,0,0,0-1.528-.058L91.167,36.566a1.751,1.751,0,0,0-.246,3.072ZM4.2,73.228a61.052,61.052,0,0,1-.678-8.236l.347.227a1.747,1.747,0,0,0,1.33.243L8.211,64.8l8.313,6.652a1.747,1.747,0,0,0,1.356.363l10.825-1.643,6.284,8.036-.1,11.357L21.118,91.18a1.746,1.746,0,0,0-1.172.656l-5.432,6.905A60.158,60.158,0,0,1,4.2,73.228ZM64,124.5a60.406,60.406,0,0,1-47.314-22.861l5.561-7.067L36.83,92.866a1.752,1.752,0,0,0,1.547-1.723l.117-13.512a1.757,1.757,0,0,0-.371-1.093l-7.29-9.324a1.739,1.739,0,0,0-1.642-.651L18.112,68.244,9.746,61.55a1.752,1.752,0,0,0-1.468-.343l-3.108.68L3.582,60.851A60.622,60.622,0,0,1,46.5,6.092l.333,1.489a1.752,1.752,0,0,0,1.483,1.353l29.374,3.815,15.581,10.06-8.989,4.117L64.572,24.754,58.648,18.83a1.751,1.751,0,0,0-1.878-.391L46.278,22.572a1.764,1.764,0,0,0-.595.391L32.013,36.634a1.75,1.75,0,0,0-.513,1.237V55.909a1.748,1.748,0,0,0,.513,1.237l9.219,9.22a1.754,1.754,0,0,0,1.238.513H53.508l12.8,12.8V96.6a1.749,1.749,0,0,0,.512,1.237l10.253,10.253a1.749,1.749,0,0,0,2.475,0L92.665,94.979a1.752,1.752,0,0,0,.513-1.238V86.836l5.528-5.528a1.75,1.75,0,0,0,.513-1.237V68.754l9.044-9.045a1.745,1.745,0,0,0,.485-1.542L106.643,46.3a1.747,1.747,0,0,0-.773-1.164L95.55,38.463l8.741-3.841,9.181,4.9,7.983,5.561A60.469,60.469,0,0,1,64,124.5Z" style="fill:rgb(0,0,0)"/></g></svg>
