<svg height="512" viewBox="0 0 128 128" width="512" xmlns="http://www.w3.org/2000/svg"><g id="Layer_2" fill="rgb(0,0,0)" data-name="Layer 2"><path d="m80.963 37.714a16.963 16.963 0 1 0 -16.963 16.963 16.983 16.983 0 0 0 16.963-16.963zm-16.963 13.463a13.464 13.464 0 1 1 13.463-13.463 13.477 13.477 0 0 1 -13.463 13.463z"/><path d="m73.672 93.6a140.446 140.446 0 0 0 9.247-23.269 37.714 37.714 0 1 0 -37.838 0 140.446 140.446 0 0 0 9.247 23.269c-18.828 1.371-38.078 7.112-38.078 17.025 0 11.285 24.602 17.375 47.75 17.375s47.75-6.09 47.75-17.375c0-9.913-19.25-15.654-38.078-17.025zm-26.248-25.966a34.214 34.214 0 1 1 33.152 0 1.752 1.752 0 0 0 -.839 1.07c-3.928 14.413-12.328 29.624-15.737 35.465-3.409-5.839-11.806-21.042-15.737-35.469a1.752 1.752 0 0 0 -.839-1.066zm16.576 56.866c-26.077 0-44.25-7.312-44.25-13.875 0-5.575 13.843-12.292 36.293-13.638 3.429 6.623 6.233 11.134 6.474 11.518a1.767 1.767 0 0 0 2.966 0c.241-.384 3.045-4.895 6.474-11.518 22.45 1.346 36.293 8.063 36.293 13.638 0 6.563-18.173 13.875-44.25 13.875z"/></g></svg>